<?xml version="1.0" encoding="utf-8"?>
<!-- Pulse brand mark — transparent background, tan #D1C0AF serif "P" glyph. -->
<svg version="1.1" xmlns="http://www.w3.org/2000/svg" xmlns:xlink="http://www.w3.org/1999/xlink" x="0px" y="0px"
	 viewBox="0 0 1004.9 1004.9" style="enable-background:new 0 0 1004.9 1004.9;" xml:space="preserve">
<style type="text/css">
	.st1{fill:#D1C0AF;}
</style>
<g>
	<g>
		<path class="st1" d="M808.2,309.8c-7.9-20.2-19.5-36.5-33.8-49.5h-95.2c-5.2,0-10-3.2-11.4-8.2c-0.9-3.1-0.4-6.1,1-8.6
			c1.9-3.5,5.9-5.3,9.9-5.3h105.5c1.1,0,2.2-0.2,3.2-0.5c4.7-1.3,8.1-5.7,8.1-10.8c0-6.3-5-11.3-11.3-11.3c0,0-357.2-3.7-400.2-3.9
			c-6.9,0-12.9,4.7-14.6,11.4C343.8,326.4,242.2,740,227.2,795.9c-1.9,6.9,3.3,13.6,10.5,13.6h130.7c6.9,0,12.9-4.6,14.7-11.3
			c9.8-39.3,24.6-99.9,36.1-147.5l63.2,1.5h0.5c6.1,0,11-4.9,11-11V641c-0.1-5.7-5-10.1-10.7-10.2l-59-1.4L369,628
			c-1.7-0.1-3.3-0.5-4.6-1.1c-5.1-2.4-7.8-8.2-5.7-14.3c1.5-4.5,6-7.2,10.7-7.2h0.2l130,3.2c1,0,81.4-1.6,116.6-10.8
			C742.3,574.7,855,437.5,808.2,309.8z M654.8,415.2c-15.4,84.1-108.3,77.5-176.9,76.3c-9.7-0.3-16.6-9.4-14.3-18.7l32.5-132.3
			c1.6-6.7,7.6-11.4,14.5-11.5C577.1,328.3,681.8,314.5,654.8,415.2z"/>
	</g>
</g>
</svg>
